<?xml version="1.0" encoding="UTF-8"?>
<svg version="1.1" xmlns="http://www.w3.org/2000/svg" xmlns:xlink="http://www.w3.org/1999/xlink" xml:space="preserve" viewBox="-224.9 29.6 503.4 503.4">
    <g>
    	<path d="M26.9,188.8c39.7,0,73.5,25.1,86.6,60.2h162.9C260.6,125.2,154.9,29.6,26.8,29.6S-207,125.2-222.8,249h163.2C-46.6,213.8-12.8,188.8,26.9,188.8z"/>
    	<path d="M113.1,314.2c-13.3,34.6-46.9,59.2-86.2,59.2s-72.9-24.6-86.2-59.2h-163.5C-206.7,437.7-101.1,533,26.8,533s233.4-95.3,249.6-218.8H113.1L113.1,314.2z"/>
    	<path d="M26.8,228.1c29.4,0,53.2,23.8,53.2,53.2s-23.8,53.2-53.2,53.2s-53.2-23.8-53.2-53.2S-2.6,228.1,26.8,228.1z"/>
    </g>
</svg>